<mxfile host="app.diagrams.net" modified="2021-04-25T03:24:15.986Z" agent="5.0 (Windows NT 6.1; Win64; x64) AppleWebKit/537.36 (KHTML, like Gecko) Chrome/83.0.4103.116 Safari/537.36" etag="Ki09OfoyASfSVqRLpg7X" version="14.5.3" type="github">
  <diagram id="T4iKimDLizCYoomyX_ez" name="Page-1">
    <mxGraphModel dx="1775" dy="508" grid="1" gridSize="5" guides="1" tooltips="1" connect="1" arrows="1" fold="1" page="1" pageScale="1" pageWidth="827" pageHeight="1169" math="0" shadow="0">
      <root>
        <mxCell id="0" />
        <mxCell id="1" parent="0" />
        <mxCell id="FyCeXIWlXmWURAXXTswy-1" value="file_system_type" style="rounded=0;whiteSpace=wrap;html=1;spacing=2;fontSize=1;" vertex="1" parent="1">
          <mxGeometry x="320" y="55" width="100" height="30" as="geometry" />
        </mxCell>
        <mxCell id="FyCeXIWlXmWURAXXTswy-3" value="super_block" style="rounded=0;whiteSpace=wrap;html=1;spacing=2;fontSize=1;" vertex="1" parent="1">
          <mxGeometry x="320" y="185" width="100" height="55" as="geometry" />
        </mxCell>
        <mxCell id="FyCeXIWlXmWURAXXTswy-4" value="vfsmount" style="rounded=0;whiteSpace=wrap;html=1;spacing=2;fontSize=1;" vertex="1" parent="1">
          <mxGeometry x="75" y="205" width="100" height="30" as="geometry" />
        </mxCell>
        <mxCell id="FyCeXIWlXmWURAXXTswy-6" value="denty(root)" style="rounded=0;whiteSpace=wrap;html=1;spacing=2;fontSize=1;" vertex="1" parent="1">
          <mxGeometry x="240" y="300" width="100" height="30" as="geometry" />
        </mxCell>
        <mxCell id="FyCeXIWlXmWURAXXTswy-7" value="inode" style="rounded=0;whiteSpace=wrap;html=1;spacing=2;fontSize=1;" vertex="1" parent="1">
          <mxGeometry x="419" y="300" width="100" height="30" as="geometry" />
        </mxCell>
        <mxCell id="FyCeXIWlXmWURAXXTswy-8" value="denty" style="rounded=0;whiteSpace=wrap;html=1;spacing=2;fontSize=1;" vertex="1" parent="1">
          <mxGeometry x="240" y="400" width="100" height="30" as="geometry" />
        </mxCell>
        <mxCell id="FyCeXIWlXmWURAXXTswy-9" value="inode" style="rounded=0;whiteSpace=wrap;html=1;spacing=2;fontSize=1;" vertex="1" parent="1">
          <mxGeometry x="420" y="400" width="100" height="30" as="geometry" />
        </mxCell>
        <mxCell id="FyCeXIWlXmWURAXXTswy-16" value="" style="endArrow=classic;html=1;entryX=0.75;entryY=1;entryDx=0;entryDy=0;spacing=2;fontSize=1;exitX=0.75;exitY=0;exitDx=0;exitDy=0;" edge="1" parent="1" source="FyCeXIWlXmWURAXXTswy-3" target="FyCeXIWlXmWURAXXTswy-1">
          <mxGeometry width="50" height="50" relative="1" as="geometry">
            <mxPoint x="395" y="180" as="sourcePoint" />
            <mxPoint x="540" y="170" as="targetPoint" />
          </mxGeometry>
        </mxCell>
        <mxCell id="FyCeXIWlXmWURAXXTswy-30" value="&lt;span style=&quot;font-size: 1px; background-color: rgb(248, 249, 250);&quot;&gt;s_type&lt;/span&gt;" style="edgeLabel;html=1;align=center;verticalAlign=middle;resizable=0;points=[];spacing=2;fontSize=1;" vertex="1" connectable="0" parent="FyCeXIWlXmWURAXXTswy-16">
          <mxGeometry x="-0.5586" relative="1" as="geometry">
            <mxPoint y="-27.78" as="offset" />
          </mxGeometry>
        </mxCell>
        <mxCell id="FyCeXIWlXmWURAXXTswy-20" value="" style="endArrow=classic;html=1;exitX=1;exitY=0.5;exitDx=0;exitDy=0;spacing=2;fontSize=1;" edge="1" parent="1">
          <mxGeometry width="50" height="50" relative="1" as="geometry">
            <mxPoint x="420" y="199" as="sourcePoint" />
            <mxPoint x="560" y="199" as="targetPoint" />
          </mxGeometry>
        </mxCell>
        <mxCell id="FyCeXIWlXmWURAXXTswy-134" value="&lt;span style=&quot;background-color: rgb(248 , 249 , 250)&quot;&gt;s_list&lt;/span&gt;" style="edgeLabel;html=1;align=center;verticalAlign=middle;resizable=0;points=[];fontSize=1;fontColor=#000000;rotation=90;" vertex="1" connectable="0" parent="FyCeXIWlXmWURAXXTswy-20">
          <mxGeometry x="-0.1259" y="1" relative="1" as="geometry">
            <mxPoint x="-32.22" y="-8" as="offset" />
          </mxGeometry>
        </mxCell>
        <mxCell id="FyCeXIWlXmWURAXXTswy-22" value="super_blocks" style="text;html=1;strokeColor=none;fillColor=none;align=center;verticalAlign=middle;whiteSpace=wrap;rounded=0;spacing=2;fontSize=1;rotation=90;" vertex="1" parent="1">
          <mxGeometry x="495" y="165" width="80" height="20" as="geometry" />
        </mxCell>
        <mxCell id="FyCeXIWlXmWURAXXTswy-23" value="" style="endArrow=classic;html=1;spacing=2;fontSize=1;entryX=0.25;entryY=1;entryDx=0;entryDy=0;" edge="1" parent="1" target="FyCeXIWlXmWURAXXTswy-1">
          <mxGeometry width="50" height="50" relative="1" as="geometry">
            <mxPoint x="345" y="185" as="sourcePoint" />
            <mxPoint x="345" y="140" as="targetPoint" />
          </mxGeometry>
        </mxCell>
        <mxCell id="FyCeXIWlXmWURAXXTswy-27" value="&lt;span style=&quot;font-size: 1px ; text-align: left ; background-color: rgb(248 , 249 , 250)&quot;&gt;fs_supers&lt;/span&gt;" style="edgeLabel;html=1;align=center;verticalAlign=middle;resizable=0;points=[];spacing=2;fontSize=1;" vertex="1" connectable="0" parent="FyCeXIWlXmWURAXXTswy-23">
          <mxGeometry x="0.3609" y="1" relative="1" as="geometry">
            <mxPoint y="-5.800000000000001" as="offset" />
          </mxGeometry>
        </mxCell>
        <mxCell id="FyCeXIWlXmWURAXXTswy-28" value="&lt;span style=&quot;font-size: 1px; text-align: left; background-color: rgb(248, 249, 250);&quot;&gt;s_instances&lt;/span&gt;" style="edgeLabel;html=1;align=center;verticalAlign=middle;resizable=0;points=[];spacing=2;fontSize=1;" vertex="1" connectable="0" parent="FyCeXIWlXmWURAXXTswy-23">
          <mxGeometry x="-0.5356" y="1" relative="1" as="geometry">
            <mxPoint y="8.329999999999998" as="offset" />
          </mxGeometry>
        </mxCell>
        <mxCell id="FyCeXIWlXmWURAXXTswy-53" value="" style="endArrow=classic;html=1;entryX=1;entryY=1;entryDx=0;entryDy=0;exitX=0;exitY=0;exitDx=0;exitDy=0;spacing=2;fontSize=1;" edge="1" parent="1" source="FyCeXIWlXmWURAXXTswy-7" target="FyCeXIWlXmWURAXXTswy-3">
          <mxGeometry width="50" height="50" relative="1" as="geometry">
            <mxPoint x="600" y="360" as="sourcePoint" />
            <mxPoint x="650" y="310" as="targetPoint" />
          </mxGeometry>
        </mxCell>
        <mxCell id="FyCeXIWlXmWURAXXTswy-54" value="i_sb_list" style="edgeLabel;html=1;align=center;verticalAlign=middle;resizable=0;points=[];spacing=2;fontSize=1;" vertex="1" connectable="0" parent="FyCeXIWlXmWURAXXTswy-53">
          <mxGeometry x="-0.6618" relative="1" as="geometry">
            <mxPoint as="offset" />
          </mxGeometry>
        </mxCell>
        <mxCell id="FyCeXIWlXmWURAXXTswy-55" value="s_inodes" style="edgeLabel;html=1;align=center;verticalAlign=middle;resizable=0;points=[];spacing=2;fontSize=1;" vertex="1" connectable="0" parent="FyCeXIWlXmWURAXXTswy-53">
          <mxGeometry x="0.3264" relative="1" as="geometry">
            <mxPoint as="offset" />
          </mxGeometry>
        </mxCell>
        <mxCell id="FyCeXIWlXmWURAXXTswy-57" value="" style="edgeStyle=elbowEdgeStyle;elbow=horizontal;endArrow=classic;html=1;spacing=2;fontSize=1;" edge="1" parent="1">
          <mxGeometry width="50" height="50" relative="1" as="geometry">
            <mxPoint x="460" y="300" as="sourcePoint" />
            <mxPoint x="420" y="240" as="targetPoint" />
            <Array as="points">
              <mxPoint x="460" y="270" />
              <mxPoint x="470" y="233" />
            </Array>
          </mxGeometry>
        </mxCell>
        <mxCell id="FyCeXIWlXmWURAXXTswy-58" value="i_sb" style="edgeLabel;html=1;align=center;verticalAlign=middle;resizable=0;points=[];spacing=2;fontSize=1;" vertex="1" connectable="0" parent="FyCeXIWlXmWURAXXTswy-57">
          <mxGeometry x="-0.7422" y="1" relative="1" as="geometry">
            <mxPoint y="-12.22" as="offset" />
          </mxGeometry>
        </mxCell>
        <mxCell id="FyCeXIWlXmWURAXXTswy-67" value="" style="endArrow=none;html=1;entryX=0;entryY=1;entryDx=0;entryDy=0;exitX=0;exitY=0;exitDx=0;exitDy=0;spacing=2;fontSize=1;" edge="1" parent="1" source="FyCeXIWlXmWURAXXTswy-9" target="FyCeXIWlXmWURAXXTswy-7">
          <mxGeometry width="50" height="50" relative="1" as="geometry">
            <mxPoint x="460" y="530" as="sourcePoint" />
            <mxPoint x="510" y="480" as="targetPoint" />
          </mxGeometry>
        </mxCell>
        <mxCell id="FyCeXIWlXmWURAXXTswy-68" value="i_sb_list" style="edgeLabel;html=1;align=center;verticalAlign=middle;resizable=0;points=[];spacing=2;fontSize=1;" vertex="1" connectable="0" parent="FyCeXIWlXmWURAXXTswy-67">
          <mxGeometry x="-0.7108" y="-1" relative="1" as="geometry">
            <mxPoint x="9.14" y="-9.64" as="offset" />
          </mxGeometry>
        </mxCell>
        <mxCell id="FyCeXIWlXmWURAXXTswy-69" value="" style="edgeStyle=elbowEdgeStyle;elbow=horizontal;endArrow=classic;html=1;entryX=0;entryY=0.34;entryDx=0;entryDy=0;entryPerimeter=0;exitX=0.437;exitY=-0.085;exitDx=0;exitDy=0;exitPerimeter=0;spacing=2;fontSize=1;" edge="1" parent="1" source="FyCeXIWlXmWURAXXTswy-6">
          <mxGeometry width="50" height="50" relative="1" as="geometry">
            <mxPoint x="284" y="290" as="sourcePoint" />
            <mxPoint x="320" y="230.00000000000006" as="targetPoint" />
            <Array as="points">
              <mxPoint x="284" y="259.8" />
            </Array>
          </mxGeometry>
        </mxCell>
        <mxCell id="FyCeXIWlXmWURAXXTswy-70" value="d_sb" style="edgeLabel;html=1;align=center;verticalAlign=middle;resizable=0;points=[];spacing=2;fontSize=1;" vertex="1" connectable="0" parent="FyCeXIWlXmWURAXXTswy-69">
          <mxGeometry x="-0.7756" y="-1" relative="1" as="geometry">
            <mxPoint y="-21.08" as="offset" />
          </mxGeometry>
        </mxCell>
        <mxCell id="FyCeXIWlXmWURAXXTswy-71" value="" style="endArrow=classic;html=1;exitX=1;exitY=0.25;exitDx=0;exitDy=0;entryX=0;entryY=0.25;entryDx=0;entryDy=0;spacing=2;fontSize=1;" edge="1" parent="1">
          <mxGeometry width="50" height="50" relative="1" as="geometry">
            <mxPoint x="340" y="302.5000000000001" as="sourcePoint" />
            <mxPoint x="419" y="302.5000000000001" as="targetPoint" />
          </mxGeometry>
        </mxCell>
        <mxCell id="FyCeXIWlXmWURAXXTswy-72" value="d_u.d_alias" style="edgeLabel;html=1;align=center;verticalAlign=middle;resizable=0;points=[];rotation=90;spacing=2;fontSize=1;" vertex="1" connectable="0" parent="FyCeXIWlXmWURAXXTswy-71">
          <mxGeometry x="-0.6613" relative="1" as="geometry">
            <mxPoint y="-12.5" as="offset" />
          </mxGeometry>
        </mxCell>
        <mxCell id="FyCeXIWlXmWURAXXTswy-73" value="i_dentry" style="edgeLabel;html=1;align=center;verticalAlign=middle;resizable=0;points=[];rotation=90;spacing=2;fontSize=1;" vertex="1" connectable="0" parent="FyCeXIWlXmWURAXXTswy-71">
          <mxGeometry x="0.2117" relative="1" as="geometry">
            <mxPoint y="-12.5" as="offset" />
          </mxGeometry>
        </mxCell>
        <mxCell id="FyCeXIWlXmWURAXXTswy-75" value="" style="endArrow=classic;html=1;exitX=1;exitY=0.25;exitDx=0;exitDy=0;entryX=0;entryY=0.25;entryDx=0;entryDy=0;spacing=2;fontSize=1;" edge="1" parent="1">
          <mxGeometry width="50" height="50" relative="1" as="geometry">
            <mxPoint x="341" y="400.0000000000001" as="sourcePoint" />
            <mxPoint x="420" y="400.0000000000001" as="targetPoint" />
          </mxGeometry>
        </mxCell>
        <mxCell id="FyCeXIWlXmWURAXXTswy-76" value="d_u.d_alias" style="edgeLabel;html=1;align=center;verticalAlign=middle;resizable=0;points=[];rotation=90;spacing=2;fontSize=1;" vertex="1" connectable="0" parent="FyCeXIWlXmWURAXXTswy-75">
          <mxGeometry x="-0.6613" relative="1" as="geometry">
            <mxPoint y="-20" as="offset" />
          </mxGeometry>
        </mxCell>
        <mxCell id="FyCeXIWlXmWURAXXTswy-77" value="i_dentry" style="edgeLabel;html=1;align=center;verticalAlign=middle;resizable=0;points=[];rotation=90;spacing=2;fontSize=1;" vertex="1" connectable="0" parent="FyCeXIWlXmWURAXXTswy-75">
          <mxGeometry x="0.2117" relative="1" as="geometry">
            <mxPoint y="-10" as="offset" />
          </mxGeometry>
        </mxCell>
        <mxCell id="FyCeXIWlXmWURAXXTswy-78" value="" style="edgeStyle=elbowEdgeStyle;elbow=horizontal;endArrow=classic;html=1;entryX=0;entryY=0.34;entryDx=0;entryDy=0;entryPerimeter=0;spacing=2;fontSize=1;" edge="1" parent="1">
          <mxGeometry width="50" height="50" relative="1" as="geometry">
            <mxPoint x="310" y="400" as="sourcePoint" />
            <mxPoint x="320" y="240" as="targetPoint" />
            <Array as="points">
              <mxPoint x="310" y="300" />
              <mxPoint x="300" y="270" />
            </Array>
          </mxGeometry>
        </mxCell>
        <mxCell id="FyCeXIWlXmWURAXXTswy-79" value="d_sb" style="edgeLabel;html=1;align=center;verticalAlign=middle;resizable=0;points=[];spacing=2;fontSize=1;" vertex="1" connectable="0" parent="FyCeXIWlXmWURAXXTswy-78">
          <mxGeometry x="-0.7756" y="-1" relative="1" as="geometry">
            <mxPoint x="-1" y="-11.11" as="offset" />
          </mxGeometry>
        </mxCell>
        <mxCell id="FyCeXIWlXmWURAXXTswy-80" value="" style="endArrow=classic;html=1;exitX=1;exitY=1;exitDx=0;exitDy=0;entryX=0;entryY=1;entryDx=0;entryDy=0;spacing=2;fontSize=1;" edge="1" parent="1" source="FyCeXIWlXmWURAXXTswy-6" target="FyCeXIWlXmWURAXXTswy-7">
          <mxGeometry width="50" height="50" relative="1" as="geometry">
            <mxPoint x="640" y="410" as="sourcePoint" />
            <mxPoint x="690" y="360" as="targetPoint" />
          </mxGeometry>
        </mxCell>
        <mxCell id="FyCeXIWlXmWURAXXTswy-81" value="d_inode" style="edgeLabel;html=1;align=center;verticalAlign=middle;resizable=0;points=[];rotation=90;spacing=2;fontSize=1;" vertex="1" connectable="0" parent="FyCeXIWlXmWURAXXTswy-80">
          <mxGeometry x="-0.2396" y="1" relative="1" as="geometry">
            <mxPoint y="11" as="offset" />
          </mxGeometry>
        </mxCell>
        <mxCell id="FyCeXIWlXmWURAXXTswy-82" value="" style="endArrow=classic;html=1;exitX=1;exitY=1;exitDx=0;exitDy=0;entryX=0;entryY=1;entryDx=0;entryDy=0;spacing=2;fontSize=1;" edge="1" parent="1">
          <mxGeometry width="50" height="50" relative="1" as="geometry">
            <mxPoint x="341" y="430.0000000000001" as="sourcePoint" />
            <mxPoint x="420" y="430.0000000000001" as="targetPoint" />
          </mxGeometry>
        </mxCell>
        <mxCell id="FyCeXIWlXmWURAXXTswy-83" value="d_inode" style="edgeLabel;html=1;align=center;verticalAlign=middle;resizable=0;points=[];rotation=90;spacing=2;fontSize=1;" vertex="1" connectable="0" parent="FyCeXIWlXmWURAXXTswy-82">
          <mxGeometry x="-0.2396" y="1" relative="1" as="geometry">
            <mxPoint x="-1" y="11" as="offset" />
          </mxGeometry>
        </mxCell>
        <mxCell id="FyCeXIWlXmWURAXXTswy-84" value="" style="endArrow=classic;html=1;entryX=0;entryY=1;entryDx=0;entryDy=0;exitX=0;exitY=0;exitDx=0;exitDy=0;spacing=2;fontSize=1;" edge="1" parent="1">
          <mxGeometry width="50" height="50" relative="1" as="geometry">
            <mxPoint x="248" y="400" as="sourcePoint" />
            <mxPoint x="248" y="330" as="targetPoint" />
          </mxGeometry>
        </mxCell>
        <mxCell id="FyCeXIWlXmWURAXXTswy-85" value="d_parent" style="edgeLabel;html=1;align=center;verticalAlign=middle;resizable=0;points=[];spacing=2;fontSize=1;" vertex="1" connectable="0" parent="FyCeXIWlXmWURAXXTswy-84">
          <mxGeometry x="-0.6709" relative="1" as="geometry">
            <mxPoint x="-3" y="-13.330000000000002" as="offset" />
          </mxGeometry>
        </mxCell>
        <mxCell id="FyCeXIWlXmWURAXXTswy-86" value="" style="endArrow=classic;html=1;entryX=0;entryY=1;entryDx=0;entryDy=0;exitX=0;exitY=0;exitDx=0;exitDy=0;spacing=2;fontSize=1;" edge="1" parent="1">
          <mxGeometry width="50" height="50" relative="1" as="geometry">
            <mxPoint x="275" y="400.0000000000001" as="sourcePoint" />
            <mxPoint x="275" y="330.0000000000001" as="targetPoint" />
          </mxGeometry>
        </mxCell>
        <mxCell id="FyCeXIWlXmWURAXXTswy-87" value="d_child" style="edgeLabel;html=1;align=center;verticalAlign=middle;resizable=0;points=[];spacing=2;fontSize=1;" vertex="1" connectable="0" parent="FyCeXIWlXmWURAXXTswy-86">
          <mxGeometry x="-0.6709" relative="1" as="geometry">
            <mxPoint x="5" as="offset" />
          </mxGeometry>
        </mxCell>
        <mxCell id="FyCeXIWlXmWURAXXTswy-88" value="d_subdirs" style="edgeLabel;html=1;align=center;verticalAlign=middle;resizable=0;points=[];spacing=2;fontSize=1;" vertex="1" connectable="0" parent="FyCeXIWlXmWURAXXTswy-86">
          <mxGeometry x="0.5113" y="1" relative="1" as="geometry">
            <mxPoint x="6" as="offset" />
          </mxGeometry>
        </mxCell>
        <mxCell id="FyCeXIWlXmWURAXXTswy-95" value="" style="edgeStyle=elbowEdgeStyle;elbow=horizontal;endArrow=classic;html=1;entryX=0.004;entryY=0.559;entryDx=0;entryDy=0;exitX=0.093;exitY=-0.043;exitDx=0;exitDy=0;exitPerimeter=0;spacing=2;fontSize=1;entryPerimeter=0;" edge="1" parent="1" source="FyCeXIWlXmWURAXXTswy-6" target="FyCeXIWlXmWURAXXTswy-3">
          <mxGeometry width="50" height="50" relative="1" as="geometry">
            <mxPoint x="250.00000000000006" y="284.44999999999993" as="sourcePoint" />
            <mxPoint x="286.3" y="217" as="targetPoint" />
            <Array as="points">
              <mxPoint x="250.3" y="246.8" />
            </Array>
          </mxGeometry>
        </mxCell>
        <mxCell id="FyCeXIWlXmWURAXXTswy-96" value="d_lru" style="edgeLabel;html=1;align=center;verticalAlign=middle;resizable=0;points=[];spacing=2;fontSize=1;" vertex="1" connectable="0" parent="FyCeXIWlXmWURAXXTswy-95">
          <mxGeometry x="-0.7756" y="-1" relative="1" as="geometry">
            <mxPoint x="-1.2999999999999998" y="-2.0299999999999994" as="offset" />
          </mxGeometry>
        </mxCell>
        <mxCell id="FyCeXIWlXmWURAXXTswy-97" value="s_dentry_lru" style="edgeLabel;html=1;align=center;verticalAlign=middle;resizable=0;points=[];rotation=0;spacing=2;fontSize=1;" vertex="1" connectable="0" parent="FyCeXIWlXmWURAXXTswy-95">
          <mxGeometry x="-0.054" y="-1" relative="1" as="geometry">
            <mxPoint x="-6.300000000000001" y="1.92" as="offset" />
          </mxGeometry>
        </mxCell>
        <mxCell id="FyCeXIWlXmWURAXXTswy-98" value="" style="edgeStyle=elbowEdgeStyle;elbow=horizontal;endArrow=classic;html=1;entryX=1;entryY=0.75;entryDx=0;entryDy=0;spacing=2;fontSize=1;" edge="1" parent="1" target="FyCeXIWlXmWURAXXTswy-3">
          <mxGeometry width="50" height="50" relative="1" as="geometry">
            <mxPoint x="490" y="300" as="sourcePoint" />
            <mxPoint x="430" y="242.5" as="targetPoint" />
            <Array as="points">
              <mxPoint x="490" y="270" />
            </Array>
          </mxGeometry>
        </mxCell>
        <mxCell id="FyCeXIWlXmWURAXXTswy-99" value="i_lru" style="edgeLabel;html=1;align=center;verticalAlign=middle;resizable=0;points=[];spacing=2;fontSize=1;" vertex="1" connectable="0" parent="FyCeXIWlXmWURAXXTswy-98">
          <mxGeometry x="-0.7422" y="1" relative="1" as="geometry">
            <mxPoint as="offset" />
          </mxGeometry>
        </mxCell>
        <mxCell id="FyCeXIWlXmWURAXXTswy-100" value="s_inode_lru" style="edgeLabel;html=1;align=center;verticalAlign=middle;resizable=0;points=[];fontSize=1;spacing=2;" vertex="1" connectable="0" parent="FyCeXIWlXmWURAXXTswy-98">
          <mxGeometry x="-0.2748" relative="1" as="geometry">
            <mxPoint x="10" as="offset" />
          </mxGeometry>
        </mxCell>
        <mxCell id="FyCeXIWlXmWURAXXTswy-103" value="" style="endArrow=classic;html=1;fontSize=1;exitX=1.005;exitY=0.111;exitDx=0;exitDy=0;exitPerimeter=0;entryX=-0.015;entryY=0.424;entryDx=0;entryDy=0;entryPerimeter=0;" edge="1" parent="1" source="FyCeXIWlXmWURAXXTswy-4" target="FyCeXIWlXmWURAXXTswy-3">
          <mxGeometry width="50" height="50" relative="1" as="geometry">
            <mxPoint x="140" y="315" as="sourcePoint" />
            <mxPoint x="315" y="205" as="targetPoint" />
          </mxGeometry>
        </mxCell>
        <mxCell id="FyCeXIWlXmWURAXXTswy-104" value="mnt_sb" style="edgeLabel;html=1;align=center;verticalAlign=middle;resizable=0;points=[];fontSize=1;" vertex="1" connectable="0" parent="FyCeXIWlXmWURAXXTswy-103">
          <mxGeometry x="-0.6877" relative="1" as="geometry">
            <mxPoint x="6.71" y="-1.59" as="offset" />
          </mxGeometry>
        </mxCell>
        <mxCell id="FyCeXIWlXmWURAXXTswy-107" value="" style="edgeStyle=elbowEdgeStyle;elbow=horizontal;endArrow=classic;html=1;fontSize=1;fontColor=#000000;entryX=0;entryY=0.25;entryDx=0;entryDy=0;" edge="1" parent="1" target="FyCeXIWlXmWURAXXTswy-6">
          <mxGeometry width="50" height="50" relative="1" as="geometry">
            <mxPoint x="175" y="230" as="sourcePoint" />
            <mxPoint x="240" y="320" as="targetPoint" />
          </mxGeometry>
        </mxCell>
        <mxCell id="FyCeXIWlXmWURAXXTswy-108" value="mnt_root" style="edgeLabel;html=1;align=center;verticalAlign=middle;resizable=0;points=[];fontSize=1;fontColor=#000000;" vertex="1" connectable="0" parent="FyCeXIWlXmWURAXXTswy-107">
          <mxGeometry x="-0.4119" relative="1" as="geometry">
            <mxPoint y="25.78" as="offset" />
          </mxGeometry>
        </mxCell>
        <mxCell id="FyCeXIWlXmWURAXXTswy-110" value="mount(root)" style="rounded=0;whiteSpace=wrap;html=1;fontSize=1;fontColor=#000000;" vertex="1" parent="1">
          <mxGeometry x="-45" y="190" width="80" height="45" as="geometry" />
        </mxCell>
        <mxCell id="FyCeXIWlXmWURAXXTswy-111" value="" style="endArrow=diamondThin;endFill=1;endSize=24;html=1;fontSize=1;fontColor=#000000;exitX=0;exitY=0.5;exitDx=0;exitDy=0;entryX=0.996;entryY=0.662;entryDx=0;entryDy=0;entryPerimeter=0;" edge="1" parent="1" source="FyCeXIWlXmWURAXXTswy-4" target="FyCeXIWlXmWURAXXTswy-110">
          <mxGeometry width="160" relative="1" as="geometry">
            <mxPoint x="75" y="305" as="sourcePoint" />
            <mxPoint x="35" y="225" as="targetPoint" />
          </mxGeometry>
        </mxCell>
        <mxCell id="FyCeXIWlXmWURAXXTswy-112" value="" style="endArrow=classic;html=1;fontSize=1;fontColor=#000000;exitX=0.5;exitY=0;exitDx=0;exitDy=0;" edge="1" parent="1">
          <mxGeometry width="50" height="50" relative="1" as="geometry">
            <mxPoint x="-30" y="190" as="sourcePoint" />
            <mxPoint x="-30" y="115" as="targetPoint" />
          </mxGeometry>
        </mxCell>
        <mxCell id="FyCeXIWlXmWURAXXTswy-113" value="mnt_hash" style="edgeLabel;html=1;align=center;verticalAlign=middle;resizable=0;points=[];fontSize=1;fontColor=#000000;" vertex="1" connectable="0" parent="FyCeXIWlXmWURAXXTswy-112">
          <mxGeometry x="-0.6135" y="1" relative="1" as="geometry">
            <mxPoint x="6" y="-0.5599999999999987" as="offset" />
          </mxGeometry>
        </mxCell>
        <mxCell id="FyCeXIWlXmWURAXXTswy-115" value="mount_hashtable" style="edgeLabel;html=1;align=center;verticalAlign=middle;resizable=0;points=[];fontSize=1;fontColor=#000000;" vertex="1" connectable="0" parent="FyCeXIWlXmWURAXXTswy-112">
          <mxGeometry x="0.452" relative="1" as="geometry">
            <mxPoint x="5" y="-0.5599999999999987" as="offset" />
          </mxGeometry>
        </mxCell>
        <mxCell id="FyCeXIWlXmWURAXXTswy-114" value="mount" style="rounded=0;whiteSpace=wrap;html=1;fontSize=1;fontColor=#000000;" vertex="1" parent="1">
          <mxGeometry x="-47" y="400" width="80" height="45" as="geometry" />
        </mxCell>
        <mxCell id="FyCeXIWlXmWURAXXTswy-116" value="" style="endArrow=classic;html=1;fontSize=1;fontColor=#000000;exitX=0.5;exitY=0;exitDx=0;exitDy=0;entryX=0.5;entryY=1;entryDx=0;entryDy=0;" edge="1" parent="1">
          <mxGeometry width="50" height="50" relative="1" as="geometry">
            <mxPoint x="-40" y="400" as="sourcePoint" />
            <mxPoint x="-38" y="235" as="targetPoint" />
          </mxGeometry>
        </mxCell>
        <mxCell id="FyCeXIWlXmWURAXXTswy-117" value="mnt_parent" style="edgeLabel;html=1;align=center;verticalAlign=middle;resizable=0;points=[];fontSize=1;fontColor=#000000;" vertex="1" connectable="0" parent="FyCeXIWlXmWURAXXTswy-116">
          <mxGeometry x="-0.802" y="-1" relative="1" as="geometry">
            <mxPoint x="-6.2" y="-38.73" as="offset" />
          </mxGeometry>
        </mxCell>
        <mxCell id="FyCeXIWlXmWURAXXTswy-118" value="" style="endArrow=classic;html=1;fontSize=1;fontColor=#000000;entryX=0.788;entryY=1.057;entryDx=0;entryDy=0;entryPerimeter=0;exitX=0.796;exitY=-0.002;exitDx=0;exitDy=0;exitPerimeter=0;" edge="1" parent="1">
          <mxGeometry width="50" height="50" relative="1" as="geometry">
            <mxPoint x="-6.320000000000164" y="399.90999999999997" as="sourcePoint" />
            <mxPoint x="-4.960000000000036" y="237.56500000000005" as="targetPoint" />
          </mxGeometry>
        </mxCell>
        <mxCell id="FyCeXIWlXmWURAXXTswy-119" value="mnt_child" style="edgeLabel;html=1;align=center;verticalAlign=middle;resizable=0;points=[];fontSize=1;fontColor=#000000;" vertex="1" connectable="0" parent="FyCeXIWlXmWURAXXTswy-118">
          <mxGeometry x="-0.6753" relative="1" as="geometry">
            <mxPoint y="-3.799999999999999" as="offset" />
          </mxGeometry>
        </mxCell>
        <mxCell id="FyCeXIWlXmWURAXXTswy-120" value="mnt_mounts" style="edgeLabel;html=1;align=center;verticalAlign=middle;resizable=0;points=[];fontSize=1;fontColor=#000000;" vertex="1" connectable="0" parent="FyCeXIWlXmWURAXXTswy-118">
          <mxGeometry x="0.8007" relative="1" as="geometry">
            <mxPoint x="5.1" y="7.03" as="offset" />
          </mxGeometry>
        </mxCell>
        <mxCell id="FyCeXIWlXmWURAXXTswy-122" value="" style="endArrow=classic;html=1;fontSize=1;fontColor=#000000;exitX=1.009;exitY=0.118;exitDx=0;exitDy=0;exitPerimeter=0;entryX=-0.01;entryY=0.179;entryDx=0;entryDy=0;entryPerimeter=0;" edge="1" parent="1" source="FyCeXIWlXmWURAXXTswy-110" target="FyCeXIWlXmWURAXXTswy-3">
          <mxGeometry width="50" height="50" relative="1" as="geometry">
            <mxPoint x="100" y="215" as="sourcePoint" />
            <mxPoint x="150" y="165" as="targetPoint" />
          </mxGeometry>
        </mxCell>
        <mxCell id="FyCeXIWlXmWURAXXTswy-123" value="mnt_instance" style="edgeLabel;html=1;align=center;verticalAlign=middle;resizable=0;points=[];fontSize=1;fontColor=#000000;" vertex="1" connectable="0" parent="FyCeXIWlXmWURAXXTswy-122">
          <mxGeometry x="-0.8916" relative="1" as="geometry">
            <mxPoint x="28.93" y="-5.279999999999999" as="offset" />
          </mxGeometry>
        </mxCell>
        <mxCell id="FyCeXIWlXmWURAXXTswy-124" value="s_mounts" style="edgeLabel;html=1;align=center;verticalAlign=middle;resizable=0;points=[];fontSize=1;fontColor=#000000;" vertex="1" connectable="0" parent="FyCeXIWlXmWURAXXTswy-122">
          <mxGeometry x="0.7503" relative="1" as="geometry">
            <mxPoint x="-3.63" y="-4.9" as="offset" />
          </mxGeometry>
        </mxCell>
        <mxCell id="FyCeXIWlXmWURAXXTswy-125" value="" style="endArrow=classic;html=1;fontSize=1;fontColor=#000000;exitX=-0.018;exitY=0.156;exitDx=0;exitDy=0;exitPerimeter=0;" edge="1" parent="1" source="FyCeXIWlXmWURAXXTswy-110">
          <mxGeometry width="50" height="50" relative="1" as="geometry">
            <mxPoint x="-100" y="290" as="sourcePoint" />
            <mxPoint x="-110" y="197" as="targetPoint" />
          </mxGeometry>
        </mxCell>
        <mxCell id="FyCeXIWlXmWURAXXTswy-126" value="mnt_list" style="edgeLabel;html=1;align=center;verticalAlign=middle;resizable=0;points=[];fontSize=1;fontColor=#000000;rotation=90;" vertex="1" connectable="0" parent="FyCeXIWlXmWURAXXTswy-125">
          <mxGeometry x="-0.5279" y="-1" relative="1" as="geometry">
            <mxPoint x="1.44" y="-11.02" as="offset" />
          </mxGeometry>
        </mxCell>
        <mxCell id="FyCeXIWlXmWURAXXTswy-127" value="mnt_namespace" style="edgeLabel;html=1;align=center;verticalAlign=middle;resizable=0;points=[];fontSize=1;fontColor=#000000;rotation=90;" vertex="1" connectable="0" parent="FyCeXIWlXmWURAXXTswy-125">
          <mxGeometry x="0.556" y="-1" relative="1" as="geometry">
            <mxPoint x="-19.12" y="-6" as="offset" />
          </mxGeometry>
        </mxCell>
        <mxCell id="FyCeXIWlXmWURAXXTswy-128" value="mountpoint" style="rounded=0;whiteSpace=wrap;html=1;spacing=2;fontSize=1;" vertex="1" parent="1">
          <mxGeometry x="65" y="296" width="105" height="30" as="geometry" />
        </mxCell>
        <mxCell id="FyCeXIWlXmWURAXXTswy-129" value="" style="edgeStyle=elbowEdgeStyle;elbow=vertical;endArrow=classic;html=1;fontSize=1;fontColor=#000000;exitX=0.829;exitY=1.02;exitDx=0;exitDy=0;exitPerimeter=0;" edge="1" parent="1" source="FyCeXIWlXmWURAXXTswy-110">
          <mxGeometry width="50" height="50" relative="1" as="geometry">
            <mxPoint x="20" y="185" as="sourcePoint" />
            <mxPoint x="118" y="295" as="targetPoint" />
            <Array as="points">
              <mxPoint x="45" y="255" />
            </Array>
          </mxGeometry>
        </mxCell>
        <mxCell id="FyCeXIWlXmWURAXXTswy-130" value="mnt_mp" style="edgeLabel;html=1;align=center;verticalAlign=middle;resizable=0;points=[];fontSize=1;fontColor=#000000;rotation=90;" vertex="1" connectable="0" parent="FyCeXIWlXmWURAXXTswy-129">
          <mxGeometry x="-0.7909" relative="1" as="geometry">
            <mxPoint x="48.68" y="7.4300000000000015" as="offset" />
          </mxGeometry>
        </mxCell>
        <mxCell id="FyCeXIWlXmWURAXXTswy-131" value="" style="endArrow=classic;html=1;fontSize=1;fontColor=#000000;exitX=1;exitY=0.75;exitDx=0;exitDy=0;entryX=0.008;entryY=0.641;entryDx=0;entryDy=0;entryPerimeter=0;" edge="1" parent="1" source="FyCeXIWlXmWURAXXTswy-128" target="FyCeXIWlXmWURAXXTswy-6">
          <mxGeometry width="50" height="50" relative="1" as="geometry">
            <mxPoint x="125" y="405" as="sourcePoint" />
            <mxPoint x="175" y="355" as="targetPoint" />
          </mxGeometry>
        </mxCell>
        <mxCell id="FyCeXIWlXmWURAXXTswy-132" value="m_dentry" style="edgeLabel;html=1;align=center;verticalAlign=middle;resizable=0;points=[];fontSize=1;fontColor=#000000;rotation=90;" vertex="1" connectable="0" parent="FyCeXIWlXmWURAXXTswy-131">
          <mxGeometry x="-0.7114" relative="1" as="geometry">
            <mxPoint x="10" as="offset" />
          </mxGeometry>
        </mxCell>
        <mxCell id="FyCeXIWlXmWURAXXTswy-135" value="file_system_type" style="rounded=0;whiteSpace=wrap;html=1;spacing=2;fontSize=1;" vertex="1" parent="1">
          <mxGeometry x="465" y="55" width="100" height="30" as="geometry" />
        </mxCell>
        <mxCell id="FyCeXIWlXmWURAXXTswy-136" value="" style="endArrow=classic;html=1;fontSize=1;fontColor=#000000;exitX=1;exitY=0.5;exitDx=0;exitDy=0;entryX=0;entryY=0.5;entryDx=0;entryDy=0;" edge="1" parent="1" source="FyCeXIWlXmWURAXXTswy-1" target="FyCeXIWlXmWURAXXTswy-135">
          <mxGeometry width="50" height="50" relative="1" as="geometry">
            <mxPoint x="185" y="140" as="sourcePoint" />
            <mxPoint x="235" y="90" as="targetPoint" />
          </mxGeometry>
        </mxCell>
        <mxCell id="FyCeXIWlXmWURAXXTswy-137" value="next" style="edgeLabel;html=1;align=center;verticalAlign=middle;resizable=0;points=[];fontSize=1;fontColor=#000000;" vertex="1" connectable="0" parent="FyCeXIWlXmWURAXXTswy-136">
          <mxGeometry x="0.442" relative="1" as="geometry">
            <mxPoint x="-12.22" as="offset" />
          </mxGeometry>
        </mxCell>
        <mxCell id="FyCeXIWlXmWURAXXTswy-138" value="" style="curved=1;endArrow=classic;html=1;fontSize=1;fontColor=#000000;exitX=0.874;exitY=1.03;exitDx=0;exitDy=0;exitPerimeter=0;" edge="1" parent="1">
          <mxGeometry width="50" height="50" relative="1" as="geometry">
            <mxPoint x="-44.999999999999915" y="230.56999999999996" as="sourcePoint" />
            <mxPoint x="-45" y="230" as="targetPoint" />
            <Array as="points">
              <mxPoint x="-52.400000000000006" y="290.67" />
              <mxPoint x="-102.4" y="240.67" />
            </Array>
          </mxGeometry>
        </mxCell>
        <mxCell id="FyCeXIWlXmWURAXXTswy-139" value="mnt_parent" style="edgeLabel;html=1;align=center;verticalAlign=middle;resizable=0;points=[];fontSize=1;fontColor=#000000;" vertex="1" connectable="0" parent="FyCeXIWlXmWURAXXTswy-138">
          <mxGeometry x="0.2426" y="-8" relative="1" as="geometry">
            <mxPoint as="offset" />
          </mxGeometry>
        </mxCell>
        <mxCell id="FyCeXIWlXmWURAXXTswy-140" value="" style="curved=1;endArrow=classic;html=1;fontSize=1;fontColor=#000000;exitX=0.874;exitY=1.03;exitDx=0;exitDy=0;exitPerimeter=0;" edge="1" parent="1">
          <mxGeometry width="50" height="50" relative="1" as="geometry">
            <mxPoint x="240" y="326.56999999999994" as="sourcePoint" />
            <mxPoint x="240" y="326" as="targetPoint" />
            <Array as="points">
              <mxPoint x="232.6" y="386.67" />
              <mxPoint x="182.6" y="336.66999999999996" />
            </Array>
          </mxGeometry>
        </mxCell>
        <mxCell id="FyCeXIWlXmWURAXXTswy-141" value="d_parent" style="edgeLabel;html=1;align=center;verticalAlign=middle;resizable=0;points=[];fontSize=1;fontColor=#000000;" vertex="1" connectable="0" parent="FyCeXIWlXmWURAXXTswy-140">
          <mxGeometry x="0.2426" y="-8" relative="1" as="geometry">
            <mxPoint x="2.21" y="14.45" as="offset" />
          </mxGeometry>
        </mxCell>
        <mxCell id="FyCeXIWlXmWURAXXTswy-144" value="super_block" style="rounded=0;whiteSpace=wrap;html=1;spacing=2;fontSize=1;" vertex="1" parent="1">
          <mxGeometry x="355" y="558.5799999999999" width="100" height="55" as="geometry" />
        </mxCell>
        <mxCell id="FyCeXIWlXmWURAXXTswy-145" value="vfsmount" style="rounded=0;whiteSpace=wrap;html=1;spacing=2;fontSize=1;" vertex="1" parent="1">
          <mxGeometry x="110" y="578.5799999999999" width="100" height="30" as="geometry" />
        </mxCell>
        <mxCell id="FyCeXIWlXmWURAXXTswy-146" value="denty(root)" style="rounded=0;whiteSpace=wrap;html=1;spacing=2;fontSize=1;" vertex="1" parent="1">
          <mxGeometry x="275" y="673.5799999999999" width="100" height="30" as="geometry" />
        </mxCell>
        <mxCell id="FyCeXIWlXmWURAXXTswy-147" value="inode" style="rounded=0;whiteSpace=wrap;html=1;spacing=2;fontSize=1;" vertex="1" parent="1">
          <mxGeometry x="454" y="673.5799999999999" width="100" height="30" as="geometry" />
        </mxCell>
        <mxCell id="FyCeXIWlXmWURAXXTswy-154" value="" style="endArrow=classic;html=1;entryX=1;entryY=1;entryDx=0;entryDy=0;exitX=0;exitY=0;exitDx=0;exitDy=0;spacing=2;fontSize=1;" edge="1" parent="1" source="FyCeXIWlXmWURAXXTswy-147" target="FyCeXIWlXmWURAXXTswy-144">
          <mxGeometry width="50" height="50" relative="1" as="geometry">
            <mxPoint x="635" y="733.5799999999999" as="sourcePoint" />
            <mxPoint x="685" y="683.5799999999999" as="targetPoint" />
          </mxGeometry>
        </mxCell>
        <mxCell id="FyCeXIWlXmWURAXXTswy-155" value="i_sb_list" style="edgeLabel;html=1;align=center;verticalAlign=middle;resizable=0;points=[];spacing=2;fontSize=1;" vertex="1" connectable="0" parent="FyCeXIWlXmWURAXXTswy-154">
          <mxGeometry x="-0.6618" relative="1" as="geometry">
            <mxPoint as="offset" />
          </mxGeometry>
        </mxCell>
        <mxCell id="FyCeXIWlXmWURAXXTswy-156" value="s_inodes" style="edgeLabel;html=1;align=center;verticalAlign=middle;resizable=0;points=[];spacing=2;fontSize=1;" vertex="1" connectable="0" parent="FyCeXIWlXmWURAXXTswy-154">
          <mxGeometry x="0.3264" relative="1" as="geometry">
            <mxPoint as="offset" />
          </mxGeometry>
        </mxCell>
        <mxCell id="FyCeXIWlXmWURAXXTswy-157" value="" style="edgeStyle=elbowEdgeStyle;elbow=horizontal;endArrow=classic;html=1;spacing=2;fontSize=1;" edge="1" parent="1">
          <mxGeometry width="50" height="50" relative="1" as="geometry">
            <mxPoint x="495" y="673.5799999999999" as="sourcePoint" />
            <mxPoint x="455" y="613.5799999999999" as="targetPoint" />
            <Array as="points">
              <mxPoint x="495" y="643.5799999999999" />
              <mxPoint x="505" y="606.5799999999999" />
            </Array>
          </mxGeometry>
        </mxCell>
        <mxCell id="FyCeXIWlXmWURAXXTswy-158" value="i_sb" style="edgeLabel;html=1;align=center;verticalAlign=middle;resizable=0;points=[];spacing=2;fontSize=1;" vertex="1" connectable="0" parent="FyCeXIWlXmWURAXXTswy-157">
          <mxGeometry x="-0.7422" y="1" relative="1" as="geometry">
            <mxPoint y="-12.22" as="offset" />
          </mxGeometry>
        </mxCell>
        <mxCell id="FyCeXIWlXmWURAXXTswy-161" value="" style="edgeStyle=elbowEdgeStyle;elbow=horizontal;endArrow=classic;html=1;entryX=0;entryY=0.34;entryDx=0;entryDy=0;entryPerimeter=0;exitX=0.437;exitY=-0.085;exitDx=0;exitDy=0;exitPerimeter=0;spacing=2;fontSize=1;" edge="1" parent="1" source="FyCeXIWlXmWURAXXTswy-146">
          <mxGeometry width="50" height="50" relative="1" as="geometry">
            <mxPoint x="319" y="663.5799999999999" as="sourcePoint" />
            <mxPoint x="355" y="603.5799999999999" as="targetPoint" />
            <Array as="points">
              <mxPoint x="319" y="633.38" />
            </Array>
          </mxGeometry>
        </mxCell>
        <mxCell id="FyCeXIWlXmWURAXXTswy-162" value="d_sb" style="edgeLabel;html=1;align=center;verticalAlign=middle;resizable=0;points=[];spacing=2;fontSize=1;" vertex="1" connectable="0" parent="FyCeXIWlXmWURAXXTswy-161">
          <mxGeometry x="-0.7756" y="-1" relative="1" as="geometry">
            <mxPoint y="-21.08" as="offset" />
          </mxGeometry>
        </mxCell>
        <mxCell id="FyCeXIWlXmWURAXXTswy-163" value="" style="endArrow=classic;html=1;exitX=1;exitY=0.25;exitDx=0;exitDy=0;entryX=0;entryY=0.25;entryDx=0;entryDy=0;spacing=2;fontSize=1;" edge="1" parent="1">
          <mxGeometry width="50" height="50" relative="1" as="geometry">
            <mxPoint x="375" y="676.0800000000002" as="sourcePoint" />
            <mxPoint x="454" y="676.0800000000002" as="targetPoint" />
          </mxGeometry>
        </mxCell>
        <mxCell id="FyCeXIWlXmWURAXXTswy-164" value="d_u.d_alias" style="edgeLabel;html=1;align=center;verticalAlign=middle;resizable=0;points=[];rotation=90;spacing=2;fontSize=1;" vertex="1" connectable="0" parent="FyCeXIWlXmWURAXXTswy-163">
          <mxGeometry x="-0.6613" relative="1" as="geometry">
            <mxPoint y="-12.5" as="offset" />
          </mxGeometry>
        </mxCell>
        <mxCell id="FyCeXIWlXmWURAXXTswy-165" value="i_dentry" style="edgeLabel;html=1;align=center;verticalAlign=middle;resizable=0;points=[];rotation=90;spacing=2;fontSize=1;" vertex="1" connectable="0" parent="FyCeXIWlXmWURAXXTswy-163">
          <mxGeometry x="0.2117" relative="1" as="geometry">
            <mxPoint y="-12.5" as="offset" />
          </mxGeometry>
        </mxCell>
        <mxCell id="FyCeXIWlXmWURAXXTswy-168" value="" style="endArrow=classic;html=1;exitX=1;exitY=1;exitDx=0;exitDy=0;entryX=0;entryY=1;entryDx=0;entryDy=0;spacing=2;fontSize=1;" edge="1" parent="1" source="FyCeXIWlXmWURAXXTswy-146" target="FyCeXIWlXmWURAXXTswy-147">
          <mxGeometry width="50" height="50" relative="1" as="geometry">
            <mxPoint x="675" y="783.5799999999999" as="sourcePoint" />
            <mxPoint x="725" y="733.5799999999999" as="targetPoint" />
          </mxGeometry>
        </mxCell>
        <mxCell id="FyCeXIWlXmWURAXXTswy-169" value="d_inode" style="edgeLabel;html=1;align=center;verticalAlign=middle;resizable=0;points=[];rotation=90;spacing=2;fontSize=1;" vertex="1" connectable="0" parent="FyCeXIWlXmWURAXXTswy-168">
          <mxGeometry x="-0.2396" y="1" relative="1" as="geometry">
            <mxPoint y="11" as="offset" />
          </mxGeometry>
        </mxCell>
        <mxCell id="FyCeXIWlXmWURAXXTswy-178" value="" style="endArrow=classic;html=1;fontSize=1;exitX=1.005;exitY=0.111;exitDx=0;exitDy=0;exitPerimeter=0;entryX=-0.015;entryY=0.424;entryDx=0;entryDy=0;entryPerimeter=0;" edge="1" parent="1" source="FyCeXIWlXmWURAXXTswy-145" target="FyCeXIWlXmWURAXXTswy-144">
          <mxGeometry width="50" height="50" relative="1" as="geometry">
            <mxPoint x="175" y="688.5799999999999" as="sourcePoint" />
            <mxPoint x="350" y="578.5799999999999" as="targetPoint" />
          </mxGeometry>
        </mxCell>
        <mxCell id="FyCeXIWlXmWURAXXTswy-179" value="mnt_sb" style="edgeLabel;html=1;align=center;verticalAlign=middle;resizable=0;points=[];fontSize=1;" vertex="1" connectable="0" parent="FyCeXIWlXmWURAXXTswy-178">
          <mxGeometry x="-0.6877" relative="1" as="geometry">
            <mxPoint x="6.71" y="-1.59" as="offset" />
          </mxGeometry>
        </mxCell>
        <mxCell id="FyCeXIWlXmWURAXXTswy-180" value="" style="edgeStyle=elbowEdgeStyle;elbow=horizontal;endArrow=classic;html=1;fontSize=1;fontColor=#000000;entryX=0;entryY=0.25;entryDx=0;entryDy=0;" edge="1" parent="1" target="FyCeXIWlXmWURAXXTswy-146">
          <mxGeometry width="50" height="50" relative="1" as="geometry">
            <mxPoint x="210" y="603.5799999999999" as="sourcePoint" />
            <mxPoint x="275" y="693.5799999999999" as="targetPoint" />
          </mxGeometry>
        </mxCell>
        <mxCell id="FyCeXIWlXmWURAXXTswy-181" value="mnt_root" style="edgeLabel;html=1;align=center;verticalAlign=middle;resizable=0;points=[];fontSize=1;fontColor=#000000;" vertex="1" connectable="0" parent="FyCeXIWlXmWURAXXTswy-180">
          <mxGeometry x="-0.4119" relative="1" as="geometry">
            <mxPoint y="25.78" as="offset" />
          </mxGeometry>
        </mxCell>
        <mxCell id="FyCeXIWlXmWURAXXTswy-182" value="mount(root)" style="rounded=0;whiteSpace=wrap;html=1;fontSize=1;fontColor=#000000;" vertex="1" parent="1">
          <mxGeometry x="-10" y="563.5799999999999" width="80" height="45" as="geometry" />
        </mxCell>
        <mxCell id="FyCeXIWlXmWURAXXTswy-183" value="" style="endArrow=diamondThin;endFill=1;endSize=24;html=1;fontSize=1;fontColor=#000000;exitX=0;exitY=0.5;exitDx=0;exitDy=0;entryX=0.996;entryY=0.662;entryDx=0;entryDy=0;entryPerimeter=0;" edge="1" parent="1" source="FyCeXIWlXmWURAXXTswy-145" target="FyCeXIWlXmWURAXXTswy-182">
          <mxGeometry width="160" relative="1" as="geometry">
            <mxPoint x="110" y="678.5799999999999" as="sourcePoint" />
            <mxPoint x="70" y="598.5799999999999" as="targetPoint" />
          </mxGeometry>
        </mxCell>
        <mxCell id="FyCeXIWlXmWURAXXTswy-190" value="" style="endArrow=classic;html=1;fontSize=1;fontColor=#000000;exitX=1.009;exitY=0.118;exitDx=0;exitDy=0;exitPerimeter=0;entryX=-0.01;entryY=0.179;entryDx=0;entryDy=0;entryPerimeter=0;" edge="1" parent="1" source="FyCeXIWlXmWURAXXTswy-182" target="FyCeXIWlXmWURAXXTswy-144">
          <mxGeometry width="50" height="50" relative="1" as="geometry">
            <mxPoint x="135" y="588.5799999999999" as="sourcePoint" />
            <mxPoint x="185" y="538.5799999999999" as="targetPoint" />
          </mxGeometry>
        </mxCell>
        <mxCell id="FyCeXIWlXmWURAXXTswy-191" value="mnt_instance" style="edgeLabel;html=1;align=center;verticalAlign=middle;resizable=0;points=[];fontSize=1;fontColor=#000000;" vertex="1" connectable="0" parent="FyCeXIWlXmWURAXXTswy-190">
          <mxGeometry x="-0.8916" relative="1" as="geometry">
            <mxPoint x="28.93" y="-5.279999999999999" as="offset" />
          </mxGeometry>
        </mxCell>
        <mxCell id="FyCeXIWlXmWURAXXTswy-192" value="s_mounts" style="edgeLabel;html=1;align=center;verticalAlign=middle;resizable=0;points=[];fontSize=1;fontColor=#000000;" vertex="1" connectable="0" parent="FyCeXIWlXmWURAXXTswy-190">
          <mxGeometry x="0.7503" relative="1" as="geometry">
            <mxPoint x="-3.63" y="-4.9" as="offset" />
          </mxGeometry>
        </mxCell>
        <mxCell id="FyCeXIWlXmWURAXXTswy-196" value="mountpoint" style="rounded=0;whiteSpace=wrap;html=1;spacing=2;fontSize=1;" vertex="1" parent="1">
          <mxGeometry x="100" y="669.5799999999999" width="105" height="30" as="geometry" />
        </mxCell>
        <mxCell id="FyCeXIWlXmWURAXXTswy-197" value="" style="edgeStyle=elbowEdgeStyle;elbow=vertical;endArrow=classic;html=1;fontSize=1;fontColor=#000000;exitX=0.829;exitY=1.02;exitDx=0;exitDy=0;exitPerimeter=0;" edge="1" parent="1" source="FyCeXIWlXmWURAXXTswy-182">
          <mxGeometry width="50" height="50" relative="1" as="geometry">
            <mxPoint x="55" y="558.5799999999999" as="sourcePoint" />
            <mxPoint x="153" y="668.5799999999999" as="targetPoint" />
            <Array as="points">
              <mxPoint x="80" y="628.5799999999999" />
            </Array>
          </mxGeometry>
        </mxCell>
        <mxCell id="FyCeXIWlXmWURAXXTswy-198" value="mnt_mp" style="edgeLabel;html=1;align=center;verticalAlign=middle;resizable=0;points=[];fontSize=1;fontColor=#000000;rotation=90;" vertex="1" connectable="0" parent="FyCeXIWlXmWURAXXTswy-197">
          <mxGeometry x="-0.7909" relative="1" as="geometry">
            <mxPoint x="48.68" y="7.4300000000000015" as="offset" />
          </mxGeometry>
        </mxCell>
        <mxCell id="FyCeXIWlXmWURAXXTswy-199" value="" style="endArrow=classic;html=1;fontSize=1;fontColor=#000000;exitX=1;exitY=0.75;exitDx=0;exitDy=0;entryX=0.008;entryY=0.641;entryDx=0;entryDy=0;entryPerimeter=0;" edge="1" parent="1" source="FyCeXIWlXmWURAXXTswy-196" target="FyCeXIWlXmWURAXXTswy-146">
          <mxGeometry width="50" height="50" relative="1" as="geometry">
            <mxPoint x="160" y="778.5799999999999" as="sourcePoint" />
            <mxPoint x="210" y="728.5799999999999" as="targetPoint" />
          </mxGeometry>
        </mxCell>
        <mxCell id="FyCeXIWlXmWURAXXTswy-200" value="m_dentry" style="edgeLabel;html=1;align=center;verticalAlign=middle;resizable=0;points=[];fontSize=1;fontColor=#000000;rotation=90;" vertex="1" connectable="0" parent="FyCeXIWlXmWURAXXTswy-199">
          <mxGeometry x="-0.7114" relative="1" as="geometry">
            <mxPoint x="10" as="offset" />
          </mxGeometry>
        </mxCell>
        <mxCell id="FyCeXIWlXmWURAXXTswy-201" value="" style="curved=1;endArrow=classic;html=1;fontSize=1;fontColor=#000000;exitX=0.874;exitY=1.03;exitDx=0;exitDy=0;exitPerimeter=0;" edge="1" parent="1">
          <mxGeometry width="50" height="50" relative="1" as="geometry">
            <mxPoint x="-10" y="604.1499999999999" as="sourcePoint" />
            <mxPoint x="-10" y="603.5799999999999" as="targetPoint" />
            <Array as="points">
              <mxPoint x="-17.400000000000006" y="664.25" />
              <mxPoint x="-67.4" y="614.25" />
            </Array>
          </mxGeometry>
        </mxCell>
        <mxCell id="FyCeXIWlXmWURAXXTswy-202" value="mnt_parent" style="edgeLabel;html=1;align=center;verticalAlign=middle;resizable=0;points=[];fontSize=1;fontColor=#000000;" vertex="1" connectable="0" parent="FyCeXIWlXmWURAXXTswy-201">
          <mxGeometry x="0.2426" y="-8" relative="1" as="geometry">
            <mxPoint as="offset" />
          </mxGeometry>
        </mxCell>
      </root>
    </mxGraphModel>
  </diagram>
</mxfile>
